<svg xmlns="http://www.w3.org/2000/svg"  viewBox="0 0 512 512" width="48px" height="48px"><path fill="#ED488B" d="M286.3 345.1c-.8-11.5-2.6-22.9-4.6-34.3-1-5.9-2.4-11.8-3.7-17.6-7.3 1.5-14.6 3.4-21.9 5.6-18.8 5.9-38.8 12.7-54.3 25.2-8 6.4-16.4 12.8-23.9 19.7-3.3 3-6.3 6.3-9.5 9.5-1.9 1.9-4.1 3.7-5.6 5.9 17.6 15.1 40.1 18.7 62.9 20.7 15.3 1.4 30.2 1.5 45-.1.3-.1.7-.3 1.1-.4 5-1.1 10.2-2.4 15.3-3.8 0-.1 0-.1.1-.2C287 365.3 287 355.2 286.3 345.1zM260.2 216.6c-3.2-9.9-6.1-20.9-11.8-29.7-5.3-8.2-12.8-14.5-17.9-22.8-2.2-3.7-4.7-7.1-7.3-10.5-2.2-2-4.5-4-6.9-5.9-.8-.7-1.4-1.4-1.7-2.2-16.5 6.2-32.2 15-46.3 25.1-11.1 8-21.1 17.3-28.5 28.9-3 4.7-5.3 9.6-7.1 14.7-.9 3.4-1.6 6.8-2.3 10.2 8.1 3.4 16.6 5.7 25.3 7.5 10.2 2.2 20.3 4.3 30.7 5.2 21.8 1.8 43.2.6 64.7-3.7 4.6-.9 9.2-1.9 13.9-3C263.4 225.9 261.7 221.3 260.2 216.6zM321.3 154c-22.8-16-49.7-21.4-77.1-16.6-4.1.7-8.1 1.6-12.1 2.6 2.1 1.5 4.2 3 6.2 4.6 5.9 4.7 10.4 11.5 14.2 18.5 3.6 4.4 6.8 9 9.4 13.9 1.1 1.3 2.1 2.6 3.1 3.9 8.9 12.9 14.6 28.5 19.1 43.8.2.2.3.5.5.7 9.1-2.7 18.1-5.7 26.8-9.4 4.3-1.9 8.6-4 12.9-6.1 11.2-5.8 21.8-12.9 31.1-21.6C346 175.1 334.6 163.2 321.3 154zM270.5 246.9c-.4-1.3-.8-2.7-1.2-4-6.2 1.6-12.5 3.1-18.8 4.2-22.8 4.1-46.2 7-69.4 5.8-18.4-.9-35.9-5.3-53.5-9.8-1.8 15.9-1.7 32 1.2 47.9 3.4 18.8 10.2 38.8 21.8 54.6 20.8-23 45.7-42.4 74.3-54.8 16.1-7 32.9-11.5 50.1-14.5C273.4 266.5 273.3 256.5 270.5 246.9zM299.6 289.7c.6 3.4 1.2 6.9 1.7 10.3 1.6 11 3.1 22 3.2 33.1 0 .4 0 .8 0 1.3.3 1.8.6 3.6.8 5.4.4 3.2.7 6.4 1 9.6.8 5 1.4 10.1 1.6 15.1.1 1.2.1 2.5.1 3.8 4.9-2.1 9.7-4.5 14.1-7.3 15.3-9.5 28-23.1 37.1-38.5 6-10.2 10.9-21.2 14.2-32.7C348.8 287.3 324 286.8 299.6 289.7z"/><path fill="#ED488B" d="M474.2,164.7c-16.1-46.6-46.7-87.1-91.3-109.6c-51-25.7-111-28.1-166.4-19.3c-49.8,7.9-102.3,25.9-139.6,61.1c-19.6,18.5-34.7,40.9-42.7,66.8c-8,26-10.4,53.1-12.1,80.1c-0.1,1.1-0.4,2-1,2.7c0,0.2,0.1,0.5,0.1,0.8c0,52.9-1.1,108.3,30.1,153.9c25.3,37.1,64.5,61.5,107.2,73.7c88,25.2,194.2,9.6,264.9-50.8C497.5,360.8,504.3,251.8,474.2,164.7z M368.6,347.3c-29.7,37.2-79.1,52.8-125.3,54.1c-23.3,0.7-47.2-1.9-68.9-10.7c-20.2-8.2-36.2-23.4-46.3-42.7c-13.2-25.4-17.8-54-18.1-82.6c-0.8-3.1-1.6-6.1-2-9.2c-0.9-7.4-1-15.1,0.2-22.4c0.2-1.2,0.4-2.4,0.7-3.6c0.1-1.1,0.2-2.3,0.4-3.4c0.7-4.5,1.5-11.8,3.8-17.6c2.4-10.9,8.4-21.1,15.5-29.7c12.7-15.4,29.1-27.7,46.2-37.8c16-9.4,33.4-17.9,51.6-22.1c21.3-4.9,44.2-4,65.2,1.8c44.7,12.3,83.6,45.4,96.8,90.7C401.8,257.4,399,309.1,368.6,347.3z"/><path fill="#ED488B" d="M370.1,214.1c-2-4.3-4.2-8.6-6.5-12.7c-24.5,14-49.5,26.9-76,36c3.2,11.9,6.2,23.8,8.8,35.8c8.1-1,16.2-1.7,24.3-2.3c16-1.2,32.4-2.2,48.4-0.2c2.6,0.3,5.5,0.8,8.4,1.5C380.3,252.6,378.5,232.5,370.1,214.1z"/><path d="M487.8,171.6c-14.2-46.9-40.9-88.3-82-115.7c-46.4-31-105.3-38.4-159.8-34.4c-51.7,3.8-104.6,17.9-148.6,46c-21.6,13.8-40.9,31.9-55,53.4c-14.9,22.7-22.5,48.8-26.6,75.4c-2.3,15.1-3.4,30.3-4.4,45.6c-0.1,0.9,0.1,1.8,0.4,2.6c-0.9,0.9-1.5,2.2-1.5,3.8c0,30.1-0.6,60.4,4.6,90.2c4.8,27.1,15.2,52.9,31.6,75.1c29.2,39.5,73.5,63.3,120.4,75c88.9,22.2,194.2,3.7,264.5-57.1C505.5,367.4,514.7,260.6,487.8,171.6z M423.4,424.1c-70.8,60.4-176.9,76-264.9,50.8c-42.7-12.2-81.9-36.6-107.2-73.7c-31.1-45.6-30.1-101-30.1-153.9c0-0.3,0-0.5-0.1-0.8c0.5-0.7,0.9-1.6,1-2.7c1.7-27,4.1-54.1,12.1-80.1c7.9-25.9,23.1-48.3,42.7-66.8c37.3-35.2,89.8-53.2,139.6-61.1c55.5-8.8,115.5-6.4,166.4,19.3c44.6,22.5,75.1,63.1,91.3,109.6C504.3,251.8,497.5,360.8,423.4,424.1z"/><path fill="#D6E5E5" d="M388.5,212c-13.3-45.3-52.1-78.4-96.8-90.7c-21-5.8-43.9-6.6-65.2-1.8c-18.2,4.2-35.6,12.7-51.6,22.1c-17.1,10-33.5,22.4-46.2,37.8c-7.1,8.6-13,18.8-15.5,29.7c-2.3,5.9-3.1,13.1-3.8,17.6c-0.2,1.1-0.3,2.3-0.4,3.4c-0.3,1.2-0.5,2.3-0.7,3.6c-1.2,7.4-1.2,15-0.2,22.4c0.4,3.1,1.2,6.2,2,9.2c0.3,28.6,4.9,57.2,18.1,82.6c10.1,19.3,26,34.5,46.3,42.7c21.7,8.8,45.6,11.4,68.9,10.7c46.2-1.4,95.7-16.9,125.3-54.1C399,309.1,401.8,257.4,388.5,212z M244.2,137.4c27.4-4.8,54.3,0.6,77.1,16.6c13.2,9.3,24.7,21.1,34,34.4c-9.4,8.7-19.9,15.8-31.1,21.6c-4.3,2.1-8.6,4.1-12.9,6.1c-8.7,3.7-17.7,6.8-26.8,9.4c-0.1-0.3-0.3-0.5-0.5-0.7c-4.5-15.3-10.1-30.9-19.1-43.8c-1-1.4-2-2.7-3.1-3.9c-2.6-4.9-5.8-9.5-9.4-13.9c-3.8-7-8.3-13.8-14.2-18.5c-2-1.6-4.1-3.1-6.2-4.6C236.2,139,240.2,138.1,244.2,137.4z M132.9,214.3c1.8-5.1,4.1-10,7.1-14.7c7.4-11.6,17.4-20.9,28.5-28.9c14.1-10.2,29.8-18.9,46.3-25.1c0.3,0.8,0.9,1.5,1.7,2.2c2.4,1.9,4.6,3.8,6.9,5.9c2.6,3.4,5.1,6.9,7.3,10.5c5.1,8.3,12.6,14.6,17.9,22.8c5.7,8.8,8.6,19.8,11.8,29.7c1.5,4.7,3.2,9.3,4.8,13.9c-4.6,1.1-9.3,2.1-13.9,3c-21.5,4.3-42.8,5.5-64.7,3.7c-10.4-0.9-20.6-3-30.7-5.2c-8.6-1.9-17.1-4.2-25.3-7.5C131.2,221.1,132,217.7,132.9,214.3z M150.4,345.7c-11.6-15.8-18.4-35.8-21.8-54.6c-2.8-15.8-3-31.9-1.2-47.9c17.7,4.5,35.2,8.8,53.5,9.8c23.2,1.2,46.6-1.7,69.4-5.8c6.4-1.1,12.7-2.6,18.8-4.2c0.4,1.3,0.8,2.7,1.2,4c2.8,9.6,2.9,19.6,4.3,29.4c-17.2,3.1-34,7.6-50.1,14.5C196.1,303.3,171.3,322.7,150.4,345.7z M286.9,375.6c-5.1,1.4-10.2,2.7-15.3,3.8c-0.4,0.1-0.7,0.2-1.1,0.4c-14.8,1.6-29.7,1.4-45,0.1c-22.8-2-45.3-5.7-62.9-20.7c1.5-2.2,3.7-4,5.6-5.9c3.2-3.2,6.2-6.5,9.5-9.5c7.6-6.9,16-13.2,23.9-19.7c15.5-12.5,35.6-19.3,54.3-25.2c7.2-2.3,14.5-4.1,21.9-5.6c1.3,5.9,2.6,11.7,3.7,17.6c2,11.4,3.8,22.7,4.6,34.3c0.7,10.1,0.7,20.2,0.7,30.3C287,375.5,287,375.6,286.9,375.6z M359.4,322.4c-9.1,15.5-21.8,29-37.1,38.5c-4.5,2.8-9.2,5.2-14.1,7.3c0-1.3-0.1-2.6-0.1-3.8c-0.2-5-0.8-10.1-1.6-15.1c-0.3-3.2-0.6-6.4-1-9.6c-0.2-1.8-0.5-3.6-0.8-5.4c0-0.4,0-0.8,0-1.3c-0.2-11.1-1.6-22.1-3.2-33.1c-0.5-3.4-1.1-6.9-1.7-10.3c24.5-2.9,49.3-2.4,74,0C370.2,301.1,365.4,312.2,359.4,322.4z M377.4,272.2c-2.9-0.7-5.8-1.2-8.4-1.5c-16-2-32.4-1-48.4,0.2c-8.1,0.6-16.2,1.4-24.3,2.3c-2.6-12-5.6-24-8.8-35.8c26.5-9.1,51.5-22,76-36c2.4,4.2,4.5,8.4,6.5,12.7C378.5,232.5,380.3,252.6,377.4,272.2z"/></svg>